name rise45.9887peak57.8056fall74.9286.mot
datacolumns 19
datarows 20
range 10.22662800000000 10.25830000000000
endheader
time	ground_force1_vx	ground_force1_vy	ground_force1_vz	ground_force1_px	ground_force1_py	ground_force1_pz	ground_force2_vx	ground_force2_vy	ground_force2_vz	ground_force2_px	ground_force2_py	ground_force2_pz	ground_torque1_x	ground_torque1_y	ground_torque1_z	ground_torque2_x	ground_torque2_y	ground_torque2_z	
10.22662800000000	-5.51355400000000	41.37700600000000	-6.73183800000000	0.30743000000000	0.00000000000000	0.09853700000000	-56.39272400000000	804.13896199999999	-54.82690100000000	0.14568800000000	0.00000000000000	-0.08497300000000	0.00000000000000	-4.36679800000000	0.00000000000000	0.00000000000000	-23.75231200000000	0.00000000000000	
10.22829600000000	-6.00556800000000	48.68123600000000	-7.53601000000000	0.31409900000000	0.00000000000000	0.09921600000000	-57.42616700000000	801.93527900000004	-54.57305400000000	0.14448700000000	0.00000000000000	-0.08488100000000	0.00000000000000	-4.96816100000000	0.00000000000000	0.00000000000000	-23.73382600000000	0.00000000000000	
10.22996000000000	-6.37894200000000	56.12162100000000	-8.25334200000000	0.32027200000000	0.00000000000000	0.09980900000000	-58.46763500000000	799.57484999999997	-54.29477800000000	0.14329900000000	0.00000000000000	-0.08478600000000	0.00000000000000	-5.52876300000000	0.00000000000000	0.00000000000000	-23.71327500000000	0.00000000000000	
10.23163400000000	-6.61723100000000	63.60432200000000	-8.86544700000000	0.32602700000000	0.00000000000000	0.10033200000000	-59.51562000000000	797.05408699999998	-53.99186100000000	0.14212500000000	0.00000000000000	-0.08468700000000	0.00000000000000	-6.03508700000000	0.00000000000000	0.00000000000000	-23.69050600000000	0.00000000000000	
10.23329400000000	-6.71032000000000	71.05659799999999	-9.36015300000000	0.33142600000000	0.00000000000000	0.10079700000000	-60.56852900000000	794.36943900000006	-53.66413000000000	0.14096800000000	0.00000000000000	-0.08458400000000	0.00000000000000	-6.47739600000000	0.00000000000000	0.00000000000000	-23.66535400000000	0.00000000000000	
10.23496100000000	-6.65433600000000	78.42921800000001	-9.73155200000000	0.33651800000000	0.00000000000000	0.10121400000000	-61.62468800000000	791.51739999999995	-53.31145200000000	0.13982800000000	0.00000000000000	-0.08447800000000	0.00000000000000	-6.84993500000000	0.00000000000000	0.00000000000000	-23.63764700000000	0.00000000000000	
10.23663200000000	-6.45107800000000	85.69654400000000	-9.97954300000000	0.34134100000000	0.00000000000000	0.10159100000000	-62.68234300000000	788.49451999999997	-52.93373900000000	0.13870600000000	0.00000000000000	-0.08436700000000	0.00000000000000	-7.15077100000000	0.00000000000000	0.00000000000000	-23.60720100000000	0.00000000000000	
10.23830000000000	-6.10707700000000	92.85466099999999	-10.10896800000000	0.34592500000000	0.00000000000000	0.10193400000000	-63.73966200000000	785.29741300000001	-52.53094700000000	0.13760400000000	0.00000000000000	-0.08425300000000	0.00000000000000	-7.38135400000000	0.00000000000000	0.00000000000000	-23.57382500000000	0.00000000000000	
10.23996400000000	-5.63244400000000	99.91804900000000	-10.12849900000000	0.35029600000000	0.00000000000000	0.10224800000000	-64.79474100000000	781.92276600000002	-52.10307700000000	0.13652400000000	0.00000000000000	-0.08413400000000	0.00000000000000	-7.54586700000000	0.00000000000000	0.00000000000000	-23.53731900000000	0.00000000000000	
10.24163000000000	-5.03962600000000	106.91532200000000	-10.04939700000000	0.35447300000000	0.00000000000000	0.10253800000000	-65.84560200000000	778.36735099999999	-51.65017700000000	0.13546500000000	0.00000000000000	-0.08401100000000	0.00000000000000	-7.65046200000000	0.00000000000000	0.00000000000000	-23.49747500000000	0.00000000000000	
10.24329600000000	-4.34219000000000	113.88456400000000	-9.88428800000000	0.35847300000000	0.00000000000000	0.10280600000000	-66.89019999999999	774.62803699999995	-51.17234300000000	0.13443000000000	0.00000000000000	-0.08388300000000	0.00000000000000	-7.70246700000000	0.00000000000000	0.00000000000000	-23.45407500000000	0.00000000000000	
10.24496000000000	-3.55374000000000	120.86869500000000	-9.64602700000000	0.36231100000000	0.00000000000000	0.10305600000000	-67.92642499999999	770.70179800000005	-50.66971600000000	0.13341900000000	0.00000000000000	-0.08375200000000	0.00000000000000	-7.70962900000000	0.00000000000000	0.00000000000000	-23.40689600000000	0.00000000000000	
10.24662900000000	-2.68701800000000	127.91124100000000	-9.34675000000000	0.36599700000000	0.00000000000000	0.10329100000000	-68.95210800000000	766.58573100000001	-50.14249000000000	0.13243200000000	0.00000000000000	-0.08361600000000	0.00000000000000	-7.67945000000000	0.00000000000000	0.00000000000000	-23.35570800000000	0.00000000000000	
10.24829800000000	-1.75322800000000	135.05277400000000	-8.99714100000000	0.36954100000000	0.00000000000000	0.10351200000000	-69.96502099999999	762.27706300000000	-49.59090600000000	0.13147100000000	0.00000000000000	-0.08347500000000	0.00000000000000	-7.61865400000000	0.00000000000000	0.00000000000000	-23.30027300000000	0.00000000000000	
10.24996700000000	-0.76160900000000	142.32817000000000	-8.60594000000000	0.37295100000000	0.00000000000000	0.10372200000000	-70.96288500000000	757.77317400000004	-49.01525600000000	0.13053700000000	0.00000000000000	-0.08333000000000	0.00000000000000	-7.53281100000000	0.00000000000000	0.00000000000000	-23.24034800000000	0.00000000000000	
10.25163300000000	0.28076700000000	149.76476099999999	-8.17968400000000	0.37623400000000	0.00000000000000	0.10392100000000	-71.94337600000000	753.07160399999998	-48.41588000000000	0.12962900000000	0.00000000000000	-0.08318000000000	0.00000000000000	-7.42610400000000	0.00000000000000	0.00000000000000	-23.17568700000000	0.00000000000000	
10.25329500000000	1.36899000000000	157.38134900000000	-7.72266500000000	0.37939600000000	0.00000000000000	0.10411100000000	-72.90412400000000	748.17007100000001	-47.79317000000000	0.12874900000000	0.00000000000000	-0.08302600000000	0.00000000000000	-7.30125600000000	0.00000000000000	0.00000000000000	-23.10603700000000	0.00000000000000	
10.25496400000000	2.50014100000000	165.18801300000001	-7.23706100000000	0.38244100000000	0.00000000000000	0.10429400000000	-73.84272500000000	743.06648900000005	-47.14756800000000	0.12789600000000	0.00000000000000	-0.08286700000000	0.00000000000000	-7.15957500000000	0.00000000000000	0.00000000000000	-23.03114300000000	0.00000000000000	
10.25662800000000	3.67299900000000	173.18656500000000	-6.72320300000000	0.38537400000000	0.00000000000000	0.10447000000000	-74.75673999999999	737.75898400000005	-46.47956500000000	0.12707200000000	0.00000000000000	-0.08270400000000	0.00000000000000	-7.00109800000000	0.00000000000000	0.00000000000000	-22.95074800000000	0.00000000000000	
10.25830000000000	4.88766200000000	181.37151399999999	-6.17994200000000	0.38819800000000	0.00000000000000	0.10463900000000	-75.64370700000001	732.24590599999999	-45.78970200000000	0.12627500000000	0.00000000000000	-0.08253600000000	0.00000000000000	-6.82481900000000	0.00000000000000	0.00000000000000	-22.86459300000000	0.00000000000000	
